<?xml version="1.0" standalone="no"?>
<!DOCTYPE svg PUBLIC "-//W3C//DTD SVG 20010904//EN"
 "http://www.w3.org/TR/2001/REC-SVG-20010904/DTD/svg10.dtd">
<svg version="1.0" xmlns="http://www.w3.org/2000/svg"
 width="300.000000pt" height="300.000000pt" viewBox="0 0 300.000000 300.000000"
 preserveAspectRatio="xMidYMid meet">
<metadata>
Created by potrace 1.14, written by Peter Selinger 2001-2017
</metadata>
<g transform="translate(0.000000,300.000000) scale(0.100000,-0.100000)"
fill="#000000" stroke="none">
<path d="M1385 2994 c-82 -7 -95 -12 -95 -38 0 -12 -9 -33 -20 -46 -27 -31
-33 -60 -22 -91 6 -14 8 -38 5 -55 -15 -92 -57 -283 -68 -310 -7 -18 -11 -55
-9 -88 3 -36 -1 -69 -11 -92 -8 -20 -13 -40 -10 -45 3 -4 -1 -25 -10 -45 -27
-65 -16 -94 20 -54 10 11 22 20 27 20 11 0 10 -38 -2 -45 -14 -9 -13 -185 1
-185 8 0 8 -4 1 -12 -6 -7 -13 -31 -17 -53 -11 -72 -15 -85 -25 -85 -6 0 -10
6 -10 14 0 8 -5 16 -11 18 -17 6 -13 211 6 278 6 23 5 23 -14 -5 -12 -18 -21
-46 -21 -70 -1 -49 -25 -154 -39 -168 -14 -14 -14 -50 -1 -42 6 3 10 -1 10 -9
0 -8 -8 -20 -19 -25 -28 -15 -33 -71 -8 -91 26 -22 15 -77 -19 -92 -13 -6 -25
-15 -25 -20 -1 -4 -2 -11 -3 -15 -2 -5 -6 -38 -10 -75 -7 -55 -5 -70 8 -83 14
-14 20 -14 65 5 31 14 51 29 55 42 4 18 8 19 20 9 9 -7 24 -10 37 -6 11 4 32
8 45 10 14 1 33 10 43 19 9 9 24 16 33 16 14 0 29 22 42 64 6 16 10 13 29 -22
12 -23 35 -56 51 -74 33 -38 49 -75 43 -99 -3 -11 0 -16 8 -13 6 3 18 -3 26
-13 13 -16 12 -17 -3 -4 -16 12 -18 11 -18 -15 0 -22 3 -26 10 -14 5 8 10 10
10 4 0 -18 -13 -24 -27 -13 -9 8 -13 8 -13 1 0 -6 -9 -14 -21 -17 -14 -5 -19
-13 -16 -26 3 -10 1 -22 -4 -25 -5 -3 -6 -11 -3 -17 4 -7 -5 -1 -20 13 -39 36
-98 163 -100 215 0 24 -5 41 -10 38 -16 -10 3 -85 43 -170 54 -112 134 -192
246 -248 73 -35 87 -39 160 -39 92 -1 141 19 192 77 37 42 68 55 77 32 9 -24
22 -10 35 37 14 54 3 100 -27 108 -12 3 -32 14 -44 25 -12 11 -32 26 -43 33
-20 13 -20 13 1 7 18 -5 20 -2 16 27 -2 18 -9 38 -14 45 -6 8 6 23 37 50 26
21 64 65 86 98 21 33 43 65 49 72 5 7 10 31 10 53 0 25 13 71 31 112 37 85 45
129 30 165 -9 23 -8 38 10 83 11 30 25 74 31 98 5 23 14 42 20 42 6 0 9 18 7
44 -2 24 -1 42 2 40 4 -2 9 10 13 26 3 18 12 30 21 30 38 0 -8 96 -62 128 -21
13 -56 50 -78 83 -22 33 -47 62 -55 64 -8 3 -24 12 -34 20 -16 12 -17 17 -6
30 11 13 8 15 -18 15 -17 0 -34 5 -37 10 -4 6 -3 9 2 8 4 -2 9 2 10 7 2 6 -12
15 -29 21 -20 7 -28 13 -20 18 44 27 -46 30 -109 3 -20 -9 -41 -12 -48 -8 -11
7 -11 10 0 14 10 4 9 6 -3 6 -21 1 -23 12 -6 29 16 16 2 28 -16 13 -30 -25
-36 -3 -29 103 5 90 4 104 -11 109 -21 8 -265 16 -331 11z m126 -47 c-13 -13
-26 -3 -16 12 3 6 11 8 17 5 6 -4 6 -10 -1 -17z m-151 -47 c0 -10 -5 -22 -11
-26 -7 -4 -9 -25 -4 -60 8 -66 -7 -71 -32 -12 -23 52 -19 102 10 116 27 12 37
7 37 -18z m94 -109 c-9 -48 -33 -106 -41 -98 -17 18 -19 127 -2 158 l12 23 19
-23 c14 -18 17 -32 12 -60z m144 -493 c2 -11 10 -17 16 -15 7 3 11 -8 11 -27
0 -19 5 -30 12 -29 7 2 10 -4 7 -12 -4 -8 -1 -15 5 -15 7 0 11 -15 9 -40 -1
-24 -6 -36 -11 -31 -5 5 -21 5 -37 1 -15 -4 -40 -5 -55 -2 -19 3 -32 0 -39
-10 -6 -9 -26 -19 -44 -22 -34 -8 -54 -26 -28 -26 10 0 13 -6 10 -15 -4 -8
-12 -15 -20 -15 -20 0 -13 -23 11 -37 13 -7 24 -8 31 -2 7 6 20 6 35 0 15 -6
18 -10 9 -12 -8 -1 -19 -2 -25 -4 -5 -1 -16 -3 -22 -3 -23 -3 -14 -19 10 -18
12 1 21 -4 20 -11 -2 -7 1 -13 7 -13 13 0 10 -91 -4 -109 -5 -7 -11 -20 -12
-28 -1 -8 -14 -25 -28 -38 -27 -25 -30 -35 -20 -73 4 -14 12 -21 20 -18 10 4
14 -2 14 -19 0 -13 4 -35 10 -49 5 -14 6 -26 2 -26 -20 1 -33 22 -57 95 -14
44 -28 86 -31 94 -8 24 -18 2 -16 -37 2 -27 -3 -40 -17 -49 -17 -11 -20 -8
-26 25 -4 20 -9 73 -11 117 -2 44 -4 85 -4 90 -1 6 5 53 13 105 15 96 18 100
77 140 13 8 32 24 43 35 11 11 17 14 13 8 -4 -7 -5 -13 -2 -13 10 0 35 58 28
65 -4 5 -1 5 6 1 14 -8 42 16 42 37 0 30 40 34 48 5z m-381 -140 c-3 -7 -5 -2
-5 12 0 14 2 19 5 13 2 -7 2 -19 0 -25z m610 -30 c-3 -8 -6 -5 -6 6 -1 11 2
17 5 13 3 -3 4 -12 1 -19z m-529 -149 c11 -30 5 -50 -14 -42 -8 3 -14 -1 -14
-11 0 -9 -4 -16 -10 -16 -18 0 -11 -46 11 -71 17 -20 20 -33 16 -76 -6 -59
-10 -69 -38 -84 -20 -10 -20 -8 -16 106 3 105 2 117 -15 126 -19 10 -26 59 -8
59 6 0 10 15 10 34 0 62 8 68 40 32 16 -18 33 -44 38 -57z m465 -11 c-1 -40
-2 -94 -2 -119 0 -61 -19 -76 -104 -81 -50 -3 -65 -1 -55 6 20 15 29 43 34
105 5 48 3 53 -13 47 -15 -5 -15 -4 2 9 11 9 30 18 43 22 12 3 22 9 22 14 0 5
7 9 15 9 8 0 15 8 15 18 0 10 5 23 12 30 26 26 33 12 31 -60z m-464 -105 c0
-34 -1 -36 -11 -16 -6 12 -8 29 -5 37 11 27 17 18 16 -21z m-164 -188 c-8 -33
-15 -66 -15 -75 0 -8 -9 -32 -20 -53 -11 -20 -20 -45 -20 -54 0 -25 -33 -103
-44 -103 -5 0 -6 3 -3 6 3 4 2 14 -3 23 -6 12 -2 31 12 62 28 60 47 153 41
198 -5 39 6 56 42 63 27 5 28 0 10 -67z m520 -21 c6 0 23 -2 39 -2 23 -2 27
-6 23 -22 -3 -10 0 -21 7 -24 6 -2 3 -5 -6 -5 -9 -1 -20 4 -23 10 -4 6 -13 8
-21 5 -7 -3 -16 -1 -19 4 -3 5 -12 7 -19 4 -15 -6 -30 22 -20 37 3 5 11 6 17
2 7 -4 17 -8 22 -9z m2 -64 c20 0 15 -18 -7 -30 -19 -10 -19 -13 -5 -39 8 -16
11 -31 8 -35 -4 -3 2 -6 13 -6 16 0 16 -2 4 -10 -9 -5 -19 -5 -26 0 -6 6 -14
7 -17 3 -4 -3 -9 2 -13 11 -3 9 -11 16 -16 16 -6 0 -5 -6 2 -15 7 -8 11 -15 9
-16 -39 -7 -49 -7 -49 2 0 5 5 7 10 4 6 -3 10 -1 10 4 0 6 -6 11 -12 12 -7 0
-3 4 9 9 22 9 22 11 8 51 -8 23 -15 52 -15 66 l0 24 37 -26 c21 -14 43 -25 50
-25z m113 30 c0 -5 -7 -10 -15 -10 -8 0 -15 5 -15 10 0 6 7 10 15 10 8 0 15
-4 15 -10z m-552 -36 c-5 -28 -28 -29 -28 -1 0 13 3 27 7 31 10 10 25 -10 21
-30z m343 -300 c21 -25 -2 -36 -27 -12 -13 13 -24 26 -24 30 0 10 38 -3 51
-18z"/>
<path d="M1430 1980 c-9 -6 -10 -10 -3 -10 6 0 15 5 18 10 8 12 4 12 -15 0z"/>
<path d="M1230 1992 c0 -50 12 -60 27 -22 9 24 8 32 -8 46 -18 17 -19 16 -19
-24z"/>
<path d="M1849 2925 c17 -20 31 -40 31 -45 0 -6 9 -10 20 -10 11 0 20 5 20 12
0 6 7 19 16 29 15 17 13 19 -37 33 -78 24 -85 21 -50 -19z"/>
<path d="M1976 2906 c3 -8 13 -12 27 -8 20 5 20 6 1 13 -29 11 -34 10 -28 -5z"/>
<path d="M2274 2769 c9 -13 16 -38 16 -56 0 -27 5 -35 26 -43 33 -13 34 -13
34 4 0 7 8 16 18 18 21 6 85 -45 95 -75 4 -9 18 -22 33 -27 14 -6 28 -19 31
-30 3 -12 14 -20 27 -20 17 1 8 13 -45 63 -67 63 -169 141 -154 118 5 -9 3
-12 -6 -9 -8 3 -15 10 -15 16 -3 25 -5 27 -14 12 -8 -13 -10 -13 -10 1 0 9
-12 24 -26 34 l-27 17 17 -23z"/>
<path d="M2700 2369 c0 -16 46 -66 55 -58 2 3 -9 21 -25 40 -19 22 -29 29 -30
18z"/>
<path d="M2591 1500 c-76 -16 -90 -27 -74 -55 8 -14 13 -13 38 7 27 21 40 23
134 22 107 -1 109 2 16 30 -33 10 -53 9 -114 -4z"/>
<path d="M2978 1473 c-2 -5 -1 -35 3 -68 l6 -60 1 52 c1 28 5 58 8 67 6 16
-12 24 -18 9z"/>
<path d="M10 1360 c0 -25 5 -61 10 -82 11 -40 8 -39 143 -25 69 7 91 71 24 73
-23 0 -45 8 -59 21 -13 12 -41 25 -63 29 -22 4 -43 12 -47 18 -4 6 -8 -9 -8
-34z"/>
<path d="M2123 1389 c-7 -7 -9 -24 -6 -39 3 -16 1 -36 -5 -46 -10 -18 3 -64
19 -64 5 0 18 14 31 30 24 33 43 37 75 15 26 -18 39 -5 24 24 -9 15 -110 91
-123 91 -2 0 -9 -5 -15 -11z"/>
<path d="M2861 1374 c-20 -26 -19 -54 3 -54 20 0 59 48 53 64 -9 24 -33 19
-56 -10z"/>
<path d="M2025 1380 c3 -5 13 -10 21 -10 8 0 14 5 14 10 0 6 -9 10 -21 10 -11
0 -17 -4 -14 -10z"/>
<path d="M2520 1368 c0 -7 -6 -25 -14 -39 -7 -14 -12 -36 -10 -50 1 -13 3 -34
3 -45 1 -16 9 -23 33 -28 17 -3 33 -5 35 -3 2 2 -1 27 -7 54 -10 43 -17 86
-19 116 -1 12 -21 8 -21 -5z"/>
<path d="M558 1348 c-14 -22 -16 -22 -41 -5 -43 28 -155 10 -196 -30 -12 -12
-12 -17 3 -31 14 -14 36 -17 122 -16 111 2 152 12 172 44 10 16 10 24 0 40
-17 26 -42 25 -60 -2z"/>
<path d="M798 1340 c-9 -6 -46 -9 -82 -8 -101 4 -118 -35 -32 -72 42 -18 47
-18 88 -3 24 9 51 23 61 31 21 19 22 48 1 56 -19 7 -15 8 -36 -4z"/>
<path d="M2405 1323 c-10 -16 -24 -32 -32 -36 -22 -13 -15 -28 12 -24 27 3 75
44 75 63 0 10 -21 24 -35 24 -1 0 -11 -12 -20 -27z"/>
<path d="M1976 1323 l-28 -5 37 -25 c27 -19 42 -23 57 -16 19 8 19 9 0 31 -11
12 -23 21 -28 21 -5 -1 -22 -4 -38 -6z"/>
<path d="M2701 1288 c-5 -13 -12 -37 -15 -55 l-7 -31 70 -4 c39 -1 88 1 110 5
32 6 38 11 34 27 -6 22 -30 25 -102 11 -36 -7 -46 -6 -62 10 -23 23 -25 41 -4
33 9 -4 15 0 15 10 0 24 -29 19 -39 -6z"/>
<path d="M2972 1285 c0 -16 2 -22 5 -12 2 9 2 23 0 30 -3 6 -5 -1 -5 -18z"/>
<path d="M2045 1221 c2 -9 4 -25 4 -35 1 -18 2 -18 14 -4 6 9 18 17 24 19 7 2
0 11 -16 20 -27 16 -29 16 -26 0z"/>
<path d="M2961 1214 c0 -11 3 -14 6 -6 3 7 2 16 -1 19 -3 4 -6 -2 -5 -13z"/>
<path d="M886 1085 c39 -94 45 -136 41 -285 -4 -132 -13 -214 -38 -340 -6 -34
-7 -23 -3 40 3 47 8 118 10 158 2 40 7 78 10 84 4 7 2 8 -4 4 -13 -8 -13 -8
-14 79 0 33 -5 71 -11 85 -5 14 -9 41 -8 60 1 21 -2 30 -6 23 -11 -15 -24 -6
-42 29 -23 45 -25 24 -3 -36 13 -38 16 -56 9 -56 -7 0 -3 -7 7 -15 16 -12 17
-15 4 -15 -9 0 -22 14 -30 30 -7 17 -17 30 -21 30 -5 0 -5 6 -1 13 5 9 4 9 -6
0 -11 -10 -20 -5 -48 25 l-34 37 30 -60 c16 -33 33 -71 37 -85 4 -14 13 -38
21 -55 25 -55 65 -226 69 -293 2 -37 2 -56 -1 -42 -25 127 -100 368 -110 357
-2 -2 3 -23 11 -47 18 -52 18 -53 3 -45 -7 4 -6 1 2 -7 8 -7 16 -26 18 -42 2
-17 8 -39 15 -50 6 -12 13 -32 14 -46 2 -14 8 -34 14 -46 6 -11 9 -34 7 -50
-3 -27 -5 -25 -22 24 -11 28 -23 52 -27 52 -4 0 -11 9 -14 20 -4 11 -10 18
-15 15 -5 -3 -9 3 -9 12 1 35 -7 52 -34 77 -15 14 -27 32 -27 41 0 9 -4 13
-10 10 -5 -3 -10 3 -10 13 0 11 -9 30 -20 43 l-19 24 15 -50 c9 -27 22 -70 29
-95 18 -65 31 -94 59 -138 14 -22 22 -43 19 -46 -4 -3 -2 -6 3 -6 5 0 9 -13
10 -30 1 -24 -2 -28 -16 -20 -13 7 -16 5 -14 -13 1 -12 3 -22 4 -22 1 0 4 -17
5 -38 2 -21 13 -58 24 -81 12 -23 21 -48 21 -54 0 -15 -16 -16 -25 -2 -3 6 -1
10 4 10 11 0 -6 25 -46 67 -12 13 -19 23 -16 23 3 0 0 7 -7 15 -7 8 -16 12
-21 9 -5 -3 -8 0 -7 8 2 7 -5 12 -14 12 -10 -1 -15 2 -12 7 6 11 -26 69 -39
69 -4 0 -6 -4 -3 -9 4 -5 1 -11 -6 -13 -17 -6 12 -36 30 -32 7 1 8 0 2 -3 -5
-2 -8 -9 -5 -14 4 -5 -2 -6 -11 -2 -12 4 -15 3 -10 -5 4 -7 16 -12 27 -12 17
0 24 -11 20 -33 0 -4 6 -7 15 -7 9 0 12 5 8 12 -5 7 -3 8 5 4 7 -5 10 -11 7
-14 -3 -3 2 -14 11 -25 17 -20 17 -20 -2 -13 -45 18 -50 18 -32 3 9 -8 17 -21
17 -28 0 -24 31 -61 46 -55 8 3 13 0 11 -6 -2 -13 197 -118 222 -118 14 1 14
2 -1 14 -26 19 -23 30 23 70 63 55 26 42 -56 -19 -39 -30 -40 -30 -20 -4 11
15 37 47 57 71 70 83 100 160 113 293 4 33 11 79 16 103 5 24 7 47 4 52 -3 5
2 72 11 147 19 159 19 151 14 223 l-3 55 -7 -50 c-18 -128 -42 -251 -59 -301
-18 -53 -18 -54 2 -54 18 0 19 -5 13 -47 -17 -120 -28 -220 -27 -246 2 -32
-20 -77 -46 -98 -16 -12 -17 -12 -7 1 12 17 25 50 20 50 -2 0 -18 -23 -36 -50
-36 -56 -46 -63 -35 -22 8 28 8 69 0 136 -6 43 10 111 27 122 8 5 9 -22 5 -97
-6 -101 -6 -103 9 -69 12 26 15 51 10 100 -9 91 -7 136 10 232 30 167 33 194
30 254 -2 33 -13 81 -24 105 l-20 44 -1 -52 c-1 -29 -5 -53 -10 -53 -4 0 -14
20 -21 45 -13 46 -30 69 -30 41 0 -21 -9 -20 -27 2 -9 12 -9 5 3 -23z m84 -90
c0 -8 -2 -15 -4 -15 -2 0 -6 7 -10 15 -3 8 -1 15 4 15 6 0 10 -7 10 -15z m-93
-622 c-3 -10 -5 -4 -5 12 0 17 2 24 5 18 2 -7 2 -21 0 -30z"/>
<path d="M1315 1045 c6 -39 35 -128 41 -123 1 2 -9 39 -22 83 -14 46 -22 63
-19 40z"/>
<path d="M2460 1071 c0 -10 30 -24 37 -17 3 3 2 9 -2 15 -8 13 -35 15 -35 2z"/>
<path d="M1980 1018 c-18 -25 -25 -48 -27 -93 -2 -33 1 -54 5 -47 5 7 10 36
11 65 1 28 8 59 15 67 16 18 28 40 23 40 -2 0 -14 -15 -27 -32z"/>
<path d="M2566 996 c66 -59 84 -71 84 -56 0 5 -4 10 -9 10 -5 0 -14 20 -20 45
-10 39 -15 45 -39 46 -15 1 -37 3 -50 4 -18 2 -12 -8 34 -49z"/>
<path d="M1416 985 c17 -53 96 -260 104 -274 37 -63 -36 148 -82 237 -16 31
-26 48 -22 37z"/>
<path d="M1730 906 c0 -2 7 -7 16 -10 8 -3 12 -2 9 4 -6 10 -25 14 -25 6z"/>
<path d="M1778 903 c7 -3 16 -2 19 1 4 3 -2 6 -13 5 -11 0 -14 -3 -6 -6z"/>
<path d="M2462 845 c0 -16 2 -22 5 -12 2 9 2 23 0 30 -3 6 -5 -1 -5 -18z"/>
<path d="M2660 848 c0 -49 -176 -364 -231 -414 -20 -18 -20 -18 -14 11 4 17
13 53 21 80 8 28 16 62 18 76 2 15 9 35 15 45 19 34 51 117 47 121 -2 2 -16
-27 -32 -64 -28 -65 -29 -66 -36 -38 -6 30 -6 30 -6 -5 0 -44 -36 -224 -62
-309 -11 -36 -18 -66 -16 -68 14 -15 323 278 312 296 -2 3 -7 58 -9 121 -3 63
-3 105 -1 93 3 -13 12 -23 20 -23 19 0 18 -30 -2 -58 -20 -29 -17 -32 31 -35
36 -2 39 1 65 48 24 42 27 57 21 95 -5 32 -11 44 -21 41 -20 -5 -28 -4 -77 4
-41 7 -43 6 -43 -17z m-11 -215 c-29 -79 -156 -234 -241 -294 -26 -19 -26 -19
-21 0 3 11 14 27 24 37 10 9 19 21 19 26 0 5 26 44 59 86 32 42 66 91 77 109
22 39 44 51 36 20 -2 -12 -9 -28 -15 -35 -5 -7 -7 -15 -5 -18 3 -3 20 18 37
45 34 57 46 65 30 24z m11 -67 c0 -3 -4 -8 -10 -11 -5 -3 -10 -1 -10 4 0 6 5
11 10 11 6 0 10 -2 10 -4z"/>
<path d="M1160 722 c-15 -126 -10 -200 7 -97 19 111 25 195 15 195 -6 0 -15
-44 -22 -98z"/>
<path d="M1598 773 c8 -27 18 -75 21 -108 6 -57 7 -58 14 -25 5 25 1 55 -15
107 -12 40 -26 73 -29 73 -4 0 0 -21 9 -47z"/>
<path d="M1344 783 c6 -31 13 -84 21 -158 11 -103 28 -200 36 -209 5 -5 6 6 4
25 -2 19 -9 70 -15 114 -6 44 -12 96 -14 115 -5 49 -27 140 -33 140 -2 0 -2
-12 1 -27z"/>
<path d="M2453 750 c0 -30 2 -43 4 -27 2 15 2 39 0 55 -2 15 -4 2 -4 -28z"/>
<path d="M2551 734 c0 -11 3 -14 6 -6 3 7 2 16 -1 19 -3 4 -6 -2 -5 -13z"/>
<path d="M241 689 c14 -27 24 -30 36 -9 10 16 8 18 -17 22 -25 4 -27 2 -19
-13z"/>
<path d="M2516 645 c-9 -26 -7 -32 5 -12 6 10 9 21 6 23 -2 3 -7 -2 -11 -11z"/>
<path d="M1272 526 c-2 -55 -16 -147 -37 -236 -6 -24 -5 -24 10 3 23 39 45
150 45 224 0 82 -16 90 -18 9z"/>
<path d="M1625 538 c-5 -17 -12 -428 -6 -423 2 3 5 15 7 27 2 13 6 37 10 53 4
17 6 41 6 55 -1 14 -3 87 -4 162 -2 76 -4 138 -6 138 -1 0 -4 -6 -7 -12z"/>
<path d="M1172 467 c-32 -54 -46 -101 -17 -60 10 14 22 20 32 16 11 -4 14 -2
11 8 -3 8 1 28 9 46 15 38 16 43 5 43 -4 0 -22 -24 -40 -53z"/>
<path d="M2332 418 c-13 -35 -34 -95 -47 -135 -20 -61 -21 -70 -7 -62 10 6 18
20 18 32 2 30 8 51 39 131 14 38 25 75 23 83 -2 8 -13 -14 -26 -49z"/>
<path d="M1176 395 c-9 -26 -7 -32 5 -12 6 10 9 21 6 23 -2 3 -7 -2 -11 -11z"/>
<path d="M1508 262 c-3 -54 -10 -107 -17 -117 -11 -19 -12 -18 -8 6 3 21 -1
25 -23 27 -25 2 -27 -1 -29 -45 -1 -27 -4 -65 -5 -85 -4 -46 8 -50 134 -41 52
4 87 9 78 11 -10 2 -15 9 -11 18 3 8 -1 14 -11 14 -19 0 -21 11 -4 28 6 6 9
15 5 19 -4 3 -15 -12 -24 -35 -11 -29 -22 -42 -35 -42 -13 0 -17 4 -11 13 10
15 13 43 14 132 1 104 0 117 -11 110 -6 -4 -8 -11 -5 -16 4 -5 1 -9 -4 -9 -12
0 -14 8 -11 61 1 21 -3 40 -8 43 -5 3 -11 -35 -14 -92z"/>
<path d="M550 346 c0 -2 8 -10 18 -17 15 -13 16 -12 3 4 -13 16 -21 21 -21 13z"/>
<path d="M2241 334 c0 -11 3 -14 6 -6 3 7 2 16 -1 19 -3 4 -6 -2 -5 -13z"/>
<path d="M2228 274 c-11 -20 -13 -36 -7 -39 5 -4 8 -3 7 2 -1 4 3 18 11 31 7
13 11 27 9 32 -2 4 -11 -7 -20 -26z"/>
<path d="M1339 64 c-5 -15 -7 -29 -5 -32 5 -4 10 6 22 46 7 23 -7 12 -17 -14z"/>
<path d="M1343 13 c15 -2 37 -2 50 0 12 2 0 4 -28 4 -27 0 -38 -2 -22 -4z"/>
</g>
</svg>
